# xmcd CD database file
#
# Track frame offsets:
#	150
#	33406
#	67444
#	90868
#	98757
#	146032
#	175937
#	181837
#	202456
#	212184
#	238235
#	253047
#	274698
#
# Disc length: 3712 seconds
#
# Revision: 0
# Processed by: cddbd v1.4PL0 Copyright (c) Steve Scherf et al.
# Submitted via: NeoAudio 9.9.9
#
DISCID=c90e7e0d
DTITLE=Gov't Mule - 10-30-1999 Stubb's Bar-B-Q Austin, TX CD2
DYEAR=1999
DGENRE=Blues
TTITLE0=Madman Across the Water
TTITLE1=It Hurts Me Too
TTITLE2=End of the Line
TTITLE3=Encore - Crowd Noise
TTITLE4=Encore - Get Behind the Mule
TTITLE5=Encore - Soulshine
TTITLE6=Filler AMN Interview 5-7-99 - AMN Host Intro
TTITLE7=Filler AMN Interview 5-7-99 - John the Revelator
TTITLE8=Filler AMN Interview 5-7-99 - Interview
TTITLE9=Filler AMN Interview 5-7-99 - Afro Blue
TTITLE10=Filler AMN Interview 5-7-99 - Interview Cont.
TTITLE11=Filler AMN Interview 5-7-99 - Soulshine
TTITLE12=Filler AMN Interview 5-7-99 - Interview Cont.
EXTD=YEAR: 1999
EXTT0=
EXTT1=
EXTT2=
EXTT3=
EXTT4=
EXTT5=
EXTT6=
EXTT7=
EXTT8=
EXTT9=
EXTT10=
EXTT11=
EXTT12=
PLAYORDER=
